<svg xmlns="http://www.w3.org/2000/svg" xmlns:xlink="http://www.w3.org/1999/xlink" width="500" zoomAndPan="magnify" viewBox="0 0 375 374.999991" height="500" preserveAspectRatio="xMidYMid meet" version="1.0"><defs><g/><clipPath id="aab92d4ca1"><path d="M 158 332 L 219 332 L 219 370.527344 L 158 370.527344 Z M 158 332 " clip-rule="nonzero"/></clipPath><clipPath id="f44ea0cf00"><path d="M 4.527344 217 L 56 217 L 56 275 L 4.527344 275 Z M 4.527344 217 " clip-rule="nonzero"/></clipPath><clipPath id="6f1aaafe58"><path d="M 171 4.527344 L 208 4.527344 L 208 43 L 171 43 Z M 171 4.527344 " clip-rule="nonzero"/></clipPath><clipPath id="3f851094bd"><path d="M 331 165 L 370.527344 165 L 370.527344 199 L 331 199 Z M 331 165 " clip-rule="nonzero"/></clipPath><clipPath id="a409bf4ab9"><path d="M 320 211 L 370.527344 211 L 370.527344 269 L 320 269 Z M 320 211 " clip-rule="nonzero"/></clipPath></defs><path fill="#8c52ff" d="M 308.164062 292.203125 C 304.648438 289.421875 304.136719 285.105469 306.917969 281.519531 C 307.210938 281.109375 307.546875 280.738281 307.917969 280.398438 C 308.289062 280.0625 308.691406 279.765625 309.125 279.507812 C 309.558594 279.253906 310.011719 279.046875 310.488281 278.886719 C 310.964844 278.726562 311.453125 278.617188 311.953125 278.558594 C 312.449219 278.5 312.949219 278.496094 313.449219 278.539062 C 313.949219 278.585938 314.441406 278.683594 314.921875 278.828125 C 315.402344 278.976562 315.863281 279.171875 316.300781 279.414062 C 316.742188 279.660156 317.152344 279.945312 317.53125 280.273438 C 321.046875 283.054688 321.558594 287.445312 318.851562 290.886719 C 316.140625 294.328125 311.675781 294.988281 308.164062 292.203125 Z M 308.164062 292.203125 " fill-opacity="1" fill-rule="nonzero"/><path fill="#8c52ff" d="M 262.414062 311.601562 L 287.445312 319.800781 L 275.589844 302.527344 L 284.007812 296.742188 L 305.382812 327.707031 L 297.476562 333.125 L 272.441406 324.851562 L 284.371094 342.199219 L 275.953125 347.984375 L 254.582031 316.945312 Z M 262.414062 311.601562 " fill-opacity="1" fill-rule="nonzero"/><path fill="#8c52ff" d="M 247.917969 350.546875 L 246.015625 344.910156 L 229.179688 350.765625 L 226.398438 342.640625 L 243.160156 336.855469 L 241.183594 331.21875 L 222.226562 337.808594 L 219.371094 329.683594 L 248.945312 319.433594 L 261.316406 355.011719 L 232.179688 365.039062 L 229.398438 356.914062 Z M 247.917969 350.546875 " fill-opacity="1" fill-rule="nonzero"/><g clip-path="url(#aab92d4ca1)"><path fill="#8c52ff" d="M 182.257812 332.539062 L 188.554688 356.402344 L 194.410156 332.390625 L 205.902344 332.246094 L 218.492188 369.796875 L 206.632812 369.796875 L 199.898438 343.8125 L 193.898438 369.941406 L 182.992188 370.164062 L 176.257812 344.175781 L 170.253906 370.234375 L 158.835938 370.382812 L 170.765625 332.613281 Z M 182.257812 332.539062 " fill-opacity="1" fill-rule="nonzero"/></g><path fill="#8c52ff" d="M 125.382812 335.320312 C 126.917969 331.074219 130.871094 329.246094 135.117188 330.78125 C 139.363281 332.320312 141.195312 336.269531 139.65625 340.515625 C 138.117188 344.761719 134.09375 346.519531 129.921875 345.054688 C 125.75 343.589844 123.84375 339.492188 125.382812 335.320312 Z M 125.382812 335.320312 " fill-opacity="1" fill-rule="nonzero"/><path fill="#8c52ff" d="M 92.734375 297.914062 L 92.734375 324.195312 L 105.324219 307.503906 L 113.523438 313.726562 L 90.757812 343.664062 L 83.144531 337.953125 L 83.144531 311.53125 L 70.554688 328.292969 L 62.429688 322.144531 L 85.121094 292.132812 Z M 92.734375 297.914062 " fill-opacity="1" fill-rule="nonzero"/><path fill="#8c52ff" d="M 51.15625 296.304688 L 55.84375 292.71875 L 45.082031 278.589844 L 51.890625 273.390625 L 62.648438 287.519531 L 67.40625 283.859375 L 55.183594 267.902344 L 61.992188 262.632812 L 81.023438 287.519531 L 51.085938 310.359375 L 32.417969 285.910156 L 39.226562 280.710938 Z M 51.15625 296.304688 " fill-opacity="1" fill-rule="nonzero"/><g clip-path="url(#f44ea0cf00)"><path fill="#8c52ff" d="M 47.789062 228.300781 L 27 241.695312 L 51.742188 239.792969 L 55.402344 250.699219 L 23.707031 274.34375 L 19.828125 263.070312 L 42.445312 248.578125 L 15.800781 250.992188 L 12.289062 240.671875 L 34.90625 226.25 L 8.1875 228.667969 L 4.527344 217.832031 L 44.128906 217.394531 Z M 47.789062 228.300781 " fill-opacity="1" fill-rule="nonzero"/></g><path fill="#8c52ff" d="M 27.292969 175.085938 C 31.832031 175.230469 34.832031 178.453125 34.6875 182.992188 C 34.539062 187.527344 31.394531 190.457031 26.855469 190.3125 C 26.355469 190.296875 25.863281 190.234375 25.375 190.121094 C 24.886719 190.011719 24.414062 189.851562 23.957031 189.648438 C 23.503906 189.441406 23.070312 189.195312 22.664062 188.90625 C 22.253906 188.617188 21.878906 188.289062 21.535156 187.925781 C 21.191406 187.5625 20.886719 187.167969 20.621094 186.746094 C 20.355469 186.320312 20.136719 185.875 19.957031 185.40625 C 19.777344 184.941406 19.648438 184.460938 19.566406 183.96875 C 19.480469 183.472656 19.449219 182.976562 19.460938 182.476562 C 19.476562 181.976562 19.539062 181.484375 19.652344 180.996094 C 19.761719 180.507812 19.921875 180.039062 20.125 179.582031 C 20.328125 179.125 20.578125 178.691406 20.867188 178.285156 C 21.15625 177.878906 21.484375 177.503906 21.847656 177.160156 C 22.210938 176.816406 22.605469 176.511719 23.027344 176.246094 C 23.453125 175.980469 23.898438 175.757812 24.363281 175.582031 C 24.832031 175.402344 25.3125 175.273438 25.804688 175.1875 C 26.296875 175.105469 26.792969 175.070312 27.292969 175.085938 Z M 27.292969 175.085938 " fill-opacity="1" fill-rule="nonzero"/><path fill="#8c52ff" d="M 52.695312 132.410156 L 27.660156 140.679688 L 47.496094 147.488281 L 44.128906 157.152344 L 8.554688 144.925781 L 11.628906 135.851562 L 36.738281 127.652344 L 16.828125 120.769531 L 20.195312 111.179688 L 55.769531 123.40625 Z M 52.695312 132.410156 " fill-opacity="1" fill-rule="nonzero"/><path fill="#8c52ff" d="M 41.203125 92.441406 L 46.105469 95.808594 L 56.136719 81.097656 L 63.234375 86 L 53.207031 100.640625 L 58.113281 104.007812 L 69.457031 87.390625 L 76.558594 92.222656 L 58.917969 118.0625 L 27.804688 96.835938 L 45.226562 71.433594 L 52.328125 76.265625 Z M 41.203125 92.441406 " fill-opacity="1" fill-rule="nonzero"/><path fill="#8c52ff" d="M 104.738281 67.992188 L 85.488281 52.402344 L 95.003906 75.238281 L 85.855469 82.195312 L 53.425781 59.503906 L 62.941406 52.328125 L 83.730469 69.238281 L 73.191406 44.714844 L 81.828125 38.128906 L 102.617188 55.035156 L 92.003906 30.441406 L 101.152344 23.5625 L 113.890625 61.039062 Z M 104.738281 67.992188 " fill-opacity="1" fill-rule="nonzero"/><path fill="#8c52ff" d="M 148.878906 31.90625 C 150.195312 36.222656 148.074219 40.105469 143.753906 41.421875 C 139.4375 42.738281 135.628906 40.542969 134.3125 36.222656 C 134.152344 35.75 134.039062 35.261719 133.980469 34.765625 C 133.917969 34.265625 133.910156 33.765625 133.953125 33.265625 C 133.996094 32.765625 134.089844 32.277344 134.234375 31.796875 C 134.382812 31.316406 134.574219 30.855469 134.816406 30.414062 C 135.054688 29.972656 135.339844 29.5625 135.664062 29.179688 C 135.992188 28.800781 136.355469 28.453125 136.753906 28.148438 C 137.148438 27.84375 137.574219 27.582031 138.027344 27.363281 C 138.480469 27.144531 138.949219 26.976562 139.4375 26.855469 C 143.753906 25.539062 147.636719 27.660156 148.878906 31.90625 Z M 148.878906 31.90625 " fill-opacity="1" fill-rule="nonzero"/><g clip-path="url(#6f1aaafe58)"><path fill="#8c52ff" d="M 197.335938 42.667969 L 181.671875 21.511719 L 181.453125 42.445312 L 171.132812 42.300781 L 171.644531 4.675781 L 181.234375 4.820312 L 196.898438 26.050781 L 197.117188 5.042969 L 207.367188 5.042969 L 206.855469 42.738281 Z M 197.335938 42.667969 " fill-opacity="1" fill-rule="nonzero"/></g><path fill="#8c52ff" d="M 231.816406 19.242188 L 230.132812 24.953125 L 247.1875 29.929688 L 244.769531 38.128906 L 227.714844 33.148438 L 226.105469 38.933594 L 245.429688 44.570312 L 243.015625 52.769531 L 212.929688 44.058594 L 223.46875 7.894531 L 253.042969 16.535156 L 250.628906 24.730469 Z M 231.816406 19.242188 " fill-opacity="1" fill-rule="nonzero"/><path fill="#8c52ff" d="M 274.855469 72.019531 L 283.566406 48.886719 L 264.828125 65.066406 L 255.457031 58.476562 L 266.878906 20.632812 L 276.613281 27.441406 L 267.097656 52.476562 L 287.082031 34.761719 L 296.011719 40.910156 L 286.496094 65.945312 L 306.480469 48.15625 L 315.847656 54.671875 L 284.226562 78.535156 Z M 274.855469 72.019531 " fill-opacity="1" fill-rule="nonzero"/><path fill="#8c52ff" d="M 322.875 102.617188 C 319.214844 105.179688 314.824219 104.445312 312.261719 100.714844 C 309.699219 96.980469 310.578125 92.734375 314.238281 90.171875 C 314.636719 89.867188 315.066406 89.605469 315.519531 89.386719 C 315.976562 89.171875 316.449219 89.003906 316.9375 88.886719 C 317.429688 88.765625 317.925781 88.699219 318.429688 88.683594 C 318.933594 88.671875 319.433594 88.707031 319.929688 88.796875 C 320.425781 88.886719 320.90625 89.027344 321.375 89.214844 C 321.839844 89.40625 322.28125 89.644531 322.699219 89.925781 C 323.117188 90.207031 323.5 90.53125 323.851562 90.890625 C 324.203125 91.253906 324.511719 91.648438 324.777344 92.078125 C 327.339844 95.808594 326.535156 100.128906 322.875 102.617188 Z M 322.875 102.617188 " fill-opacity="1" fill-rule="nonzero"/><path fill="#8c52ff" d="M 327.78125 152.027344 L 343.003906 130.578125 L 323.023438 136.800781 L 319.949219 127.066406 L 355.890625 115.792969 L 358.742188 124.871094 L 343.445312 146.390625 L 363.5 140.09375 L 366.578125 149.832031 L 330.636719 161.105469 Z M 327.78125 152.027344 " fill-opacity="1" fill-rule="nonzero"/><g clip-path="url(#3f851094bd)"><path fill="#8c52ff" d="M 360.792969 177.425781 L 354.863281 177.574219 L 355.523438 195.363281 L 346.957031 195.652344 L 346.300781 177.941406 L 340.296875 178.160156 L 341.03125 198.214844 L 332.464844 198.582031 L 331.367188 167.253906 L 368.992188 165.933594 L 370.089844 196.679688 L 361.453125 196.972656 Z M 360.792969 177.425781 " fill-opacity="1" fill-rule="nonzero"/></g><g clip-path="url(#a409bf4ab9)"><path fill="#8c52ff" d="M 324.195312 234.816406 L 348.933594 235.914062 L 327.707031 223.175781 L 331 212.199219 L 370.527344 211.246094 L 367.089844 222.664062 L 340.296875 221.347656 L 363.429688 234.816406 L 360.355469 245.285156 L 333.5625 243.964844 L 356.695312 257.433594 L 353.398438 268.414062 L 320.898438 245.796875 Z M 324.195312 234.816406 " fill-opacity="1" fill-rule="nonzero"/></g><g fill="#ab86f5" fill-opacity="1"><g transform="translate(83.045953, 210.641002)"><g><path d="M 12.53125 0 L 3.796875 0 L 3.796875 -32.578125 L 12.53125 -32.578125 Z M 3.28125 -41.015625 C 3.28125 -42.316406 3.71875 -43.390625 4.59375 -44.234375 C 5.46875 -45.078125 6.65625 -45.5 8.15625 -45.5 C 9.644531 -45.5 10.828125 -45.078125 11.703125 -44.234375 C 12.585938 -43.390625 13.03125 -42.316406 13.03125 -41.015625 C 13.03125 -39.691406 12.582031 -38.609375 11.6875 -37.765625 C 10.800781 -36.921875 9.625 -36.5 8.15625 -36.5 C 6.695312 -36.5 5.519531 -36.921875 4.625 -37.765625 C 3.726562 -38.609375 3.28125 -39.691406 3.28125 -41.015625 Z M 3.28125 -41.015625 "/></g></g></g><g fill="#ab86f5" fill-opacity="1"><g transform="translate(99.395359, 210.641002)"><g><path d="M 2.078125 -16.53125 C 2.078125 -21.53125 3.265625 -25.554688 5.640625 -28.609375 C 8.023438 -31.660156 11.234375 -33.1875 15.265625 -33.1875 C 18.835938 -33.1875 21.617188 -31.960938 23.609375 -29.515625 L 23.96875 -32.578125 L 31.859375 -32.578125 L 31.859375 -1.078125 C 31.859375 1.765625 31.207031 4.238281 29.90625 6.34375 C 28.613281 8.457031 26.789062 10.066406 24.4375 11.171875 C 22.09375 12.273438 19.347656 12.828125 16.203125 12.828125 C 13.816406 12.828125 11.488281 12.347656 9.21875 11.390625 C 6.945312 10.441406 5.226562 9.210938 4.0625 7.703125 L 7.921875 2.40625 C 10.085938 4.832031 12.71875 6.046875 15.8125 6.046875 C 18.113281 6.046875 19.90625 5.425781 21.1875 4.1875 C 22.476562 2.957031 23.125 1.210938 23.125 -1.046875 L 23.125 -2.796875 C 21.113281 -0.523438 18.472656 0.609375 15.203125 0.609375 C 11.285156 0.609375 8.117188 -0.921875 5.703125 -3.984375 C 3.285156 -7.046875 2.078125 -11.109375 2.078125 -16.171875 Z M 10.78125 -15.90625 C 10.78125 -12.945312 11.367188 -10.628906 12.546875 -8.953125 C 13.734375 -7.273438 15.363281 -6.4375 17.4375 -6.4375 C 20.082031 -6.4375 21.976562 -7.429688 23.125 -9.421875 L 23.125 -23.125 C 21.957031 -25.113281 20.082031 -26.109375 17.5 -26.109375 C 15.40625 -26.109375 13.757812 -25.253906 12.5625 -23.546875 C 11.375 -21.835938 10.78125 -19.289062 10.78125 -15.90625 Z M 10.78125 -15.90625 "/></g></g></g><g fill="#ab86f5" fill-opacity="1"><g transform="translate(134.593252, 210.641002)"><g><path d="M 3.796875 -4.28125 C 3.796875 -5.664062 4.257812 -6.785156 5.1875 -7.640625 C 6.125 -8.503906 7.296875 -8.9375 8.703125 -8.9375 C 10.128906 -8.9375 11.304688 -8.503906 12.234375 -7.640625 C 13.171875 -6.785156 13.640625 -5.664062 13.640625 -4.28125 C 13.640625 -2.914062 13.175781 -1.804688 12.25 -0.953125 C 11.332031 -0.0976562 10.148438 0.328125 8.703125 0.328125 C 7.273438 0.328125 6.097656 -0.0976562 5.171875 -0.953125 C 4.253906 -1.804688 3.796875 -2.914062 3.796875 -4.28125 Z M 3.796875 -4.28125 "/></g></g></g><g fill="#ab86f5" fill-opacity="1"><g transform="translate(152.508347, 210.641002)"><g><path d="M 11.359375 -32.578125 L 11.625 -28.8125 C 13.945312 -31.726562 17.066406 -33.1875 20.984375 -33.1875 C 24.441406 -33.1875 27.015625 -32.171875 28.703125 -30.140625 C 30.390625 -28.117188 31.25 -25.085938 31.28125 -21.046875 L 31.28125 0 L 22.578125 0 L 22.578125 -20.84375 C 22.578125 -22.6875 22.175781 -24.023438 21.375 -24.859375 C 20.570312 -25.691406 19.238281 -26.109375 17.375 -26.109375 C 14.925781 -26.109375 13.085938 -25.0625 11.859375 -22.96875 L 11.859375 0 L 3.15625 0 L 3.15625 -32.578125 Z M 11.359375 -32.578125 "/></g></g></g><g fill="#ab86f5" fill-opacity="1"><g transform="translate(187.043834, 210.641002)"><g><path d="M 18.34375 0.609375 C 13.5625 0.609375 9.671875 -0.851562 6.671875 -3.78125 C 3.671875 -6.71875 2.171875 -10.628906 2.171875 -15.515625 L 2.171875 -16.34375 C 2.171875 -19.625 2.800781 -22.550781 4.0625 -25.125 C 5.332031 -27.707031 7.125 -29.695312 9.4375 -31.09375 C 11.757812 -32.488281 14.40625 -33.1875 17.375 -33.1875 C 21.832031 -33.1875 25.335938 -31.78125 27.890625 -28.96875 C 30.453125 -26.15625 31.734375 -22.171875 31.734375 -17.015625 L 31.734375 -13.453125 L 10.984375 -13.453125 C 11.265625 -11.328125 12.113281 -9.625 13.53125 -8.34375 C 14.945312 -7.0625 16.738281 -6.421875 18.90625 -6.421875 C 22.257812 -6.421875 24.878906 -7.632812 26.765625 -10.0625 L 31.046875 -5.265625 C 29.742188 -3.421875 27.976562 -1.976562 25.75 -0.9375 C 23.519531 0.09375 21.050781 0.609375 18.34375 0.609375 Z M 17.34375 -26.140625 C 15.613281 -26.140625 14.210938 -25.554688 13.140625 -24.390625 C 12.066406 -23.222656 11.378906 -21.554688 11.078125 -19.390625 L 23.1875 -19.390625 L 23.1875 -20.078125 C 23.144531 -22.003906 22.617188 -23.492188 21.609375 -24.546875 C 20.609375 -25.609375 19.1875 -26.140625 17.34375 -26.140625 Z M 17.34375 -26.140625 "/></g></g></g><g fill="#ab86f5" fill-opacity="1"><g transform="translate(220.374944, 210.641002)"><g><path d="M 31.671875 -11.828125 L 35.953125 -32.578125 L 44.359375 -32.578125 L 36.046875 0 L 28.765625 0 L 22.578125 -20.5 L 16.40625 0 L 9.15625 0 L 0.84375 -32.578125 L 9.25 -32.578125 L 13.484375 -11.859375 L 19.453125 -32.578125 L 25.75 -32.578125 Z M 31.671875 -11.828125 "/></g></g></g><g fill="#ab86f5" fill-opacity="1"><g transform="translate(265.689596, 210.641002)"><g><path d="M 20.984375 -9 C 20.984375 -10.0625 20.457031 -10.898438 19.40625 -11.515625 C 18.351562 -12.128906 16.660156 -12.675781 14.328125 -13.15625 C 6.578125 -14.78125 2.703125 -18.070312 2.703125 -23.03125 C 2.703125 -25.925781 3.898438 -28.34375 6.296875 -30.28125 C 8.703125 -32.21875 11.84375 -33.1875 15.71875 -33.1875 C 19.851562 -33.1875 23.160156 -32.210938 25.640625 -30.265625 C 28.117188 -28.316406 29.359375 -25.785156 29.359375 -22.671875 L 20.65625 -22.671875 C 20.65625 -23.921875 20.253906 -24.953125 19.453125 -25.765625 C 18.648438 -26.578125 17.394531 -26.984375 15.6875 -26.984375 C 14.21875 -26.984375 13.082031 -26.648438 12.28125 -25.984375 C 11.476562 -25.328125 11.078125 -24.484375 11.078125 -23.453125 C 11.078125 -22.492188 11.535156 -21.71875 12.453125 -21.125 C 13.367188 -20.53125 14.910156 -20.015625 17.078125 -19.578125 C 19.242188 -19.148438 21.070312 -18.664062 22.5625 -18.125 C 27.15625 -16.4375 29.453125 -13.515625 29.453125 -9.359375 C 29.453125 -6.390625 28.175781 -3.984375 25.625 -2.140625 C 23.070312 -0.304688 19.78125 0.609375 15.75 0.609375 C 13.019531 0.609375 10.59375 0.125 8.46875 -0.84375 C 6.351562 -1.820312 4.691406 -3.160156 3.484375 -4.859375 C 2.285156 -6.554688 1.6875 -8.390625 1.6875 -10.359375 L 9.9375 -10.359375 C 10.019531 -8.816406 10.59375 -7.632812 11.65625 -6.8125 C 12.71875 -5.988281 14.144531 -5.578125 15.9375 -5.578125 C 17.59375 -5.578125 18.847656 -5.890625 19.703125 -6.515625 C 20.554688 -7.148438 20.984375 -7.976562 20.984375 -9 Z M 20.984375 -9 "/></g></g></g><path stroke-linecap="butt" transform="matrix(0.75, 0, 0, 0.75, 80.308593, 144.915358)" fill="none" stroke-linejoin="miter" d="M 16.718752 83.998279 L 5.072918 83.998279 L 5.072918 40.555567 L 16.718752 40.555567 Z M 4.390627 29.315983 C 4.390627 27.5764 4.97396 26.144108 6.140627 25.019108 C 7.302085 23.894108 8.890627 23.331608 10.895835 23.331608 C 12.875002 23.331608 14.458336 23.894108 15.635419 25.019108 C 16.812502 26.144108 17.401044 27.5764 17.401044 29.315983 C 17.401044 31.081608 16.807294 32.524317 15.614586 33.649317 C 14.421877 34.774317 12.84896 35.336817 10.895835 35.336817 C 8.94271 35.336817 7.369793 34.774317 6.177085 33.649317 C 4.989585 32.524317 4.390627 31.081608 4.390627 29.315983 Z M 24.583336 61.95661 C 24.583336 55.289943 26.171878 49.92536 29.343753 45.857651 C 32.515628 41.789942 36.79167 39.753484 42.171879 39.753484 C 46.937504 39.753484 50.645838 41.383692 53.291671 44.649318 L 53.776046 40.555567 L 64.29688 40.555567 L 64.29688 82.55557 C 64.29688 86.357654 63.432297 89.659737 61.70313 92.472237 C 59.979172 95.284738 57.552088 97.425363 54.416671 98.894113 C 51.286463 100.368071 47.619796 101.102446 43.416671 101.102446 C 40.229171 101.102446 37.125004 100.46703 34.098962 99.196196 C 31.078128 97.925363 28.786461 96.284738 27.234378 94.279529 L 32.375003 87.21182 C 35.265629 90.451404 38.770837 92.071196 42.895837 92.071196 C 45.973963 92.071196 48.369796 91.248279 50.083338 89.602446 C 51.79688 87.956612 52.651046 85.61807 52.651046 82.597237 L 52.651046 80.263903 C 49.973963 83.289945 46.453129 84.80557 42.093754 84.80557 C 36.869795 84.80557 32.651045 82.763904 29.421878 78.68057 C 26.19792 74.597236 24.583336 69.185778 24.583336 62.440986 Z M 36.187504 62.800361 C 36.187504 66.732652 36.97917 69.821194 38.557295 72.055569 C 40.135421 74.289945 42.307296 75.409736 45.062504 75.409736 C 48.593754 75.409736 51.125005 74.081611 52.651046 71.430569 L 52.651046 53.164943 C 51.098963 50.513901 48.593754 49.190985 45.140629 49.190985 C 42.359379 49.190985 40.171879 50.326401 38.578129 52.602443 C 36.984379 54.878485 36.187504 58.274319 36.187504 62.800361 Z M 73.802089 78.300362 C 73.802089 76.451403 74.427089 74.951403 75.671881 73.800361 C 76.916673 72.64932 78.473965 72.076403 80.348965 72.076403 C 82.250007 72.076403 83.822923 72.64932 85.067715 73.800361 C 86.312507 74.951403 86.932299 76.451403 86.932299 78.300362 C 86.932299 80.11807 86.317715 81.597237 85.088548 82.732654 C 83.854173 83.873279 82.276048 84.440987 80.348965 84.440987 C 78.447923 84.440987 76.880215 83.873279 75.651048 82.732654 C 74.421881 81.597237 73.802089 80.11807 73.802089 78.300362 Z M 107.770842 40.555567 L 108.130217 45.576401 C 111.234384 41.696192 115.395842 39.753484 120.619801 39.753484 C 125.223968 39.753484 128.645843 41.102442 130.895843 43.810776 C 133.145843 46.513901 134.296885 50.555568 134.348968 55.935777 L 134.348968 83.998279 L 122.744801 83.998279 L 122.744801 56.217027 C 122.744801 53.753485 122.208343 51.967027 121.140634 50.852443 C 120.067717 49.743068 118.286467 49.190985 115.802092 49.190985 C 112.531259 49.190985 110.083342 50.58161 108.453133 53.36286 L 108.453133 83.998279 L 96.848966 83.998279 L 96.848966 40.555567 Z M 163.13022 84.80557 C 156.760428 84.80557 151.572928 82.847237 147.572928 78.940987 C 143.572927 75.034736 141.572927 69.826403 141.572927 63.321194 L 141.572927 62.196194 C 141.572927 57.836819 142.411469 53.935777 144.098969 50.493068 C 145.786469 47.055568 148.177094 44.404526 151.265636 42.545151 C 154.359386 40.685776 157.885428 39.753484 161.84897 39.753484 C 167.791679 39.753484 172.468763 41.628484 175.880221 45.373276 C 179.29168 49.123276 181.000013 54.435777 181.000013 61.315985 L 181.000013 66.050361 L 153.333345 66.050361 C 153.708345 68.888903 154.838553 71.164944 156.729178 72.878486 C 158.614595 74.592028 161.00522 75.446195 163.895845 75.446195 C 168.364596 75.446195 171.859388 73.826403 174.375013 70.592028 L 180.07293 76.972236 C 178.333346 79.435778 175.979179 81.357653 173.010429 82.732654 C 170.036471 84.112862 166.744804 84.80557 163.13022 84.80557 Z M 161.807304 49.149318 C 159.50522 49.149318 157.635428 49.92536 156.203136 51.477443 C 154.776053 53.029527 153.854178 55.253485 153.453136 58.14411 L 169.593762 58.14411 L 169.593762 57.217027 C 169.541679 54.649318 168.848971 52.659735 167.510429 51.258693 C 166.171887 49.852443 164.270845 49.149318 161.807304 49.149318 Z M 225.359391 68.222236 L 231.062516 40.555567 L 242.265642 40.555567 L 231.182308 83.998279 L 221.463557 83.998279 L 213.23439 56.654527 L 205.005223 83.998279 L 195.328139 83.998279 L 184.244805 40.555567 L 195.447931 40.555567 L 201.109389 68.180569 L 209.057307 40.555567 L 217.447932 40.555567 Z M 271.526061 71.993069 C 271.526061 70.576403 270.822936 69.456611 269.416686 68.644111 C 268.010435 67.826403 265.755227 67.097236 262.65106 66.451402 C 252.317726 64.284736 247.156267 59.89411 247.156267 53.284735 C 247.156267 49.430568 248.755226 46.211818 251.953143 43.628484 C 255.15106 41.045151 259.333352 39.753484 264.500019 39.753484 C 270.015644 39.753484 274.421894 41.050359 277.729186 43.649318 C 281.036478 46.243068 282.68752 49.618068 282.68752 53.763902 L 271.083352 53.763902 C 271.083352 52.107652 270.546894 50.732651 269.479186 49.649318 C 268.406269 48.565985 266.734394 48.024318 264.458352 48.024318 C 262.505227 48.024318 260.99481 48.467026 259.921893 49.347235 C 258.848977 50.232651 258.317727 51.357651 258.317727 52.722235 C 258.317727 54.008693 258.927102 55.045152 260.140643 55.83161 C 261.359393 56.623277 263.416685 57.305569 266.30731 57.883694 C 269.197936 58.45661 271.635436 59.107652 273.614603 59.826402 C 279.744811 62.076402 282.807311 65.972236 282.807311 71.513903 C 282.807311 75.472236 281.109395 78.68057 277.708353 81.128487 C 274.307311 83.576404 269.921894 84.80557 264.541685 84.80557 C 260.90106 84.80557 257.666685 84.154529 254.843768 82.857654 C 252.020851 81.55557 249.802101 79.779528 248.197934 77.513903 C 246.593767 75.253486 245.786476 72.810778 245.786476 70.185778 L 256.791685 70.185778 C 256.895851 72.248278 257.661476 73.826403 259.078143 74.925361 C 260.500018 76.02432 262.395852 76.571195 264.781269 76.571195 C 267.000019 76.571195 268.682311 76.14932 269.817727 75.30557 C 270.958352 74.46182 271.526061 73.357653 271.526061 71.993069 Z M 271.526061 71.993069 " stroke="#5e17eb" stroke-width="3.083715" stroke-opacity="1" stroke-miterlimit="4"/></svg>